<svg width="150" height="50" xmlns="http://www.w3.org/2000/svg">
 <!-- Created with Method Draw - http://github.com/duopixel/Method-Draw/ -->

 

  <g stroke="null" class="sprite" id="svg30">
   <ellipse stroke="#000" fill="#CC7C65" stroke-width="0.1" stroke-opacity="null" fill-opacity="null" cx="20.278621" cy="7.537178" id="svg_21" rx="1.903056" ry="1.135135" transform="matrix(1.6670501069283772,0.7212075106435822,-1.206050561516658,0.9968811392318452,16.809661955473405,-13.135821335614361) "/>
   <ellipse stroke="#000" fill="#CC7C65" stroke-width="0.1" cx="25.644037" cy="7.520238" id="svg_22" rx="14.68107" ry="7.448974"/>
   <ellipse stroke="#000" fill="#CC7C65" stroke-width="0.1" stroke-opacity="null" fill-opacity="null" cx="15.21436" cy="32.022205" id="svg_23" rx="2.324324" ry="6.561724" transform="matrix(-1.5290760581311253,0.8233059440760031,-1.3767862667802648,-0.9143738850240724,97.76190494472132,55.49137101848445) "/>
   <ellipse stroke="#000" fill="#CC7C65" stroke-width="0.1" stroke-opacity="null" fill-opacity="null" cx="6.992799" cy="18.574546" id="svg_24" rx="2.27027" ry="6.726855" transform="matrix(-1.4549250867217458,-0.8700322635296045,1.454925086721746,-0.8700322635296043,-3.8868740256167063,44.82946561336219) "/>
   <ellipse stroke="#000" fill="#CC7C65" stroke-width="0.1" stroke-opacity="null" fill-opacity="null" cx="23.085972" cy="25.477589" id="svg_25" rx="14.124969" ry="13.30174"/>
   <ellipse stroke="#000" fill="#CC7C65" stroke-width="0.1" stroke-opacity="null" fill-opacity="null" cx="18.24364" cy="19.81451" id="svg_26" rx="2.27027" ry="6.726855" transform="matrix(1.4293115506346827,-0.8850839100784413,1.480095438533218,0.8547155967251048,-18.638384119895846,23.65867572663544) "/>
   <ellipse stroke="#000" fill="#CC7C65" stroke-width="0.1" stroke-opacity="null" fill-opacity="null" cx="6.88278" cy="33.284282" id="svg_27" rx="2.324324" ry="6.561724" transform="matrix(1.81673070785065,0.577643175402714,-0.9659728521532253,1.0863888075065775,33.597230233589094,0.5969807482560213) "/>
   <ellipse stroke="#000" fill="#CC7C65" stroke-width="0.1" stroke-opacity="null" fill-opacity="null" cx="7.141856" cy="39.322438" id="svg_28" rx="4.083622" ry="0.987607" transform="matrix(-1.9568699116788113,-0.38021804094991685,0.6358255772699938,-1.1701908051685852,2.2878247947070687,96.67423126436161) "/>
   <ellipse stroke="#000" fill="#CC7C65" stroke-width="0.1" stroke-opacity="null" fill-opacity="null" cx="20.931793" cy="33.613482" id="svg_29" rx="4.083622" ry="0.987607" transform="matrix(1.2667695307296292,-0.9695774356677446,1.6213910607745425,0.7575169142724505,-38.784746560571556,36.258378418520294) "/>
  </g>
  <g stroke="null" class="sprite" id="svg2">
   <ellipse stroke="#000" fill="#cc7c65" stroke-width="0.1" stroke-opacity="null" fill-opacity="null" cx="343.705665" cy="68.869271" id="svg_36" rx="2.27027" ry="6.726855" transform="matrix(1.483010152515497,-0.8798183331290016,1.5357019685889726,0.8496306881721482,-476.76602408390704,268.381417539386) "/>
   <ellipse stroke="#000" fill="#cc7c65" stroke-width="0.1" stroke-opacity="null" fill-opacity="null" cx="344.766287" cy="59.235117" id="svg_31" rx="1.903056" ry="1.135135" transform="matrix(1.72968044106901,0.7169168737891951,-1.2513613469239806,0.9909504536908493,-378.5563640619124,-296.72397286964724) "/>
   <ellipse stroke="#000" fill="#cc7c65" stroke-width="0.1" cx="127.17707" cy="7.669995" id="svg_32" rx="15.232631" ry="7.404658"/>
   <ellipse stroke="#000" fill="#cc7c65" stroke-width="0.1" stroke-opacity="null" fill-opacity="null" cx="335.786955" cy="90.154532" id="svg_38" rx="4.083622" ry="0.987607" transform="matrix(-2.0303886475157427,-0.37795603242237563,0.6597132625855567,-1.1632290587624214,736.6861059441309,279.6363640066291) "/>
   <ellipse stroke="#000" fill="#cc7c65" stroke-width="0.1" stroke-opacity="null" fill-opacity="null" cx="331.285198" cy="84.699235" id="svg_37" rx="2.324324" ry="6.561724" transform="matrix(1.8849844758707874,0.5742066372906021,-1.0022640243559668,1.0799256193299573,-424.5331059462686,-241.01043183920618) "/>
   <ellipse stroke="#000" fill="#cc7c65" stroke-width="0.1" stroke-opacity="null" fill-opacity="null" cx="124.522899" cy="25.520513" id="svg_35" rx="14.655638" ry="13.222605"/>
   <ellipse stroke="#000" fill="#cc7c65" stroke-width="0.1" stroke-opacity="null" fill-opacity="null" cx="342.877697" cy="84.766432" id="svg_33" rx="2.324324" ry="6.561724" transform="matrix(-1.586522768370477,0.818407899097331,-1.4285115170113827,-0.9089340549725627,797.1955351574713,-164.86552703226658) "/>
   <ellipse stroke="#000" fill="#cc7c65" stroke-width="0.1" stroke-opacity="null" fill-opacity="null" cx="335.355858" cy="68.443531" id="svg_34" rx="2.27027" ry="6.726855" transform="matrix(-1.5095859778084983,-0.8648562324438014,1.509585977808499,-0.8648562324438012,516.9475358395114,371.8736219672837) "/>
   <ellipse stroke="#000" fill="#cc7c65" stroke-width="0.1" stroke-opacity="null" fill-opacity="null" cx="346.59634" cy="82.570243" id="svg_39" rx="4.083622" ry="0.987607" transform="matrix(1.3143615009163885,-0.9638091864228833,1.6823060047746674,0.753010264047332,-450.0734243063812,313.25074150769734) "/>
  </g>
  <g stroke="null" class="sprite" id="svg19">
   <ellipse stroke="#000" fill="#CC7C65" stroke-width="0.1" stroke-opacity="null" fill-opacity="null" cx="156.986487" cy="48.045356" id="svg_3" rx="1.903056" ry="1.135135" transform="matrix(1.8883073193330868,0.723828024017888,-1.3661221659341098,1.0005033149848666,-138.34139282649522,-152.506738628374) "/>
   <ellipse stroke="#000" fill="#CC7C65" stroke-width="0.1" cx="74.47286" cy="7.705925" id="svg_4" rx="16.629597" ry="7.476039"/>
   <ellipse stroke="#000" fill="#CC7C65" stroke-width="0.1" stroke-opacity="null" fill-opacity="null" cx="210.272522" cy="20.3012" id="svg_6" rx="2.27027" ry="6.726855" transform="matrix(-2.057854097266766,-0.5797420465935713,1.0941804324999584,-1.0903362101025746,474.335622245578,169.33419761804532) "/>
   <g stroke="null" transform="matrix(1.5290531077677219,0.9319773790466401,-1.7589743881390887,0.8101555755499705,-19.49718788000314,-169.49511490341987) " id="svg_15">
    <ellipse stroke="#000" fill="#CC7C65" stroke-width="0.1" stroke-opacity="null" fill-opacity="null" cx="154.876336" cy="81.007519" id="svg_5" rx="2.324324" ry="6.561724" transform="rotate(138 154.87635803222656,81.00752258300783) "/>
    <ellipse stroke="#000" fill="#CC7C65" stroke-width="0.1" stroke-opacity="null" fill-opacity="null" cx="160.621615" cy="83.192953" id="svg_11" rx="4.083622" ry="0.987607" transform="rotate(-52 160.62162780761722,83.19295501708986) "/>
   </g>
   <ellipse stroke="#000" fill="#CC7C65" stroke-width="0.1" stroke-opacity="null" fill-opacity="null" cx="71.575279" cy="25.728523" id="svg_7" rx="15.999689" ry="13.350072"/>
   <ellipse stroke="#000" fill="#CC7C65" stroke-width="0.1" stroke-opacity="null" fill-opacity="null" cx="149.120667" cy="18.071352" id="svg_8" rx="2.27027" ry="6.726855" transform="matrix(1.9765150995021907,-0.6543878333180915,1.2350637092649337,1.0472394450433016,-239.62229041817437,104.17546012747415) "/>
   <g stroke="null" transform="matrix(2.1901076864531333,-0.42235456539948,0.7971340077065571,1.160409631438642,-273.1723862730413,56.86915680673229) " id="svg_14">
    <ellipse stroke="#000" fill="#CC7C65" stroke-width="0.1" stroke-opacity="null" fill-opacity="null" cx="141.411361" cy="38.574729" id="svg_9" rx="2.324324" ry="6.561724" transform="rotate(28 141.41136169433597,38.57473373413086) "/>
    <ellipse stroke="#000" fill="#CC7C65" stroke-width="0.1" stroke-opacity="null" fill-opacity="null" cx="141.102588" cy="44.435838" id="svg_10" rx="4.083622" ry="0.987607" transform="rotate(-162 141.10260009765622,44.43584442138672) "/>
   </g>
  </g>

 
</svg>