<svg width="150" height="50" xmlns="http://www.w3.org/2000/svg">
 <!-- Created with Method Draw - http://github.com/duopixel/Method-Draw/ -->

 

  <g stroke="null" class="sprite" id="svg30">
   <ellipse stroke="#000" fill="#CC7C65" stroke-width="0.1" stroke-opacity="null" fill-opacity="null" cx="20.278621" cy="7.537178" id="svg_21" rx="1.903056" ry="1.135135" transform="matrix(1.6670501069283772,0.7212075106435822,-1.206050561516658,0.9968811392318452,16.809661955473405,-13.135821335614361) "/>
   <ellipse stroke="#000" fill="#CC7C65" stroke-width="0.1" cx="25.644037" cy="7.520238" id="svg_22" rx="14.68107" ry="7.448974"/>
   <ellipse stroke="#000" fill="#CC7C65" stroke-width="0.1" stroke-opacity="null" fill-opacity="null" cx="15.21436" cy="32.022205" id="svg_23" rx="2.324324" ry="6.561724" transform="matrix(-1.5290760581311253,0.8233059440760031,-1.3767862667802648,-0.9143738850240724,97.76190494472132,55.49137101848445) "/>
   <ellipse stroke="#000" fill="#CC7C65" stroke-width="0.1" stroke-opacity="null" fill-opacity="null" cx="6.992799" cy="18.574546" id="svg_24" rx="2.27027" ry="6.726855" transform="matrix(-1.4549250867217458,-0.8700322635296045,1.454925086721746,-0.8700322635296043,-3.8868740256167063,44.82946561336219) "/>
   <ellipse stroke="#000" fill="#CC7C65" stroke-width="0.1" stroke-opacity="null" fill-opacity="null" cx="23.085972" cy="25.477589" id="svg_25" rx="14.124969" ry="13.30174"/>
   <ellipse stroke="#000" fill="#CC7C65" stroke-width="0.1" stroke-opacity="null" fill-opacity="null" cx="18.24364" cy="19.81451" id="svg_26" rx="2.27027" ry="6.726855" transform="matrix(1.4293115506346827,-0.8850839100784413,1.480095438533218,0.8547155967251048,-18.638384119895846,23.65867572663544) "/>
   <ellipse stroke="#000" fill="#CC7C65" stroke-width="0.1" stroke-opacity="null" fill-opacity="null" cx="6.88278" cy="33.284282" id="svg_27" rx="2.324324" ry="6.561724" transform="matrix(1.81673070785065,0.577643175402714,-0.9659728521532253,1.0863888075065775,33.597230233589094,0.5969807482560213) "/>
   <ellipse stroke="#000" fill="#CC7C65" stroke-width="0.1" stroke-opacity="null" fill-opacity="null" cx="7.141856" cy="39.322438" id="svg_28" rx="4.083622" ry="0.987607" transform="matrix(-1.9568699116788113,-0.38021804094991685,0.6358255772699938,-1.1701908051685852,2.2878247947070687,96.67423126436161) "/>
   <ellipse stroke="#000" fill="#CC7C65" stroke-width="0.1" stroke-opacity="null" fill-opacity="null" cx="20.931793" cy="33.613482" id="svg_29" rx="4.083622" ry="0.987607" transform="matrix(1.2667695307296292,-0.9695774356677446,1.6213910607745425,0.7575169142724505,-38.784746560571556,36.258378418520294) "/>
  </g>
  
  </g>

 
</svg>